<svg xmlns="http://www.w3.org/2000/svg" xmlns:xlink="http://www.w3.org/1999/xlink" width="500" zoomAndPan="magnify" viewBox="0 0 375 374.999991" height="500" preserveAspectRatio="xMidYMid meet" version="1.0"><defs><clipPath id="b14767bec4"><path d="M 40.902344 35.5625 L 314.652344 35.5625 L 314.652344 335.5625 L 40.902344 335.5625 Z M 40.902344 35.5625 " clip-rule="nonzero"/></clipPath></defs><g clip-path="url(#b14767bec4)"><path fill="#2563eb" d="M 298.230469 154.132812 L 298.671875 154.132812 C 298.671875 147.820312 298.558594 141.503906 298.691406 135.195312 C 299.277344 107.054688 280.414062 80.640625 251.273438 71.085938 C 232.28125 64.863281 214.132812 68.175781 196.976562 77.742188 C 190.597656 81.292969 184.015625 83.011719 176.683594 82.757812 C 170.117188 82.53125 164.519531 80.109375 158.890625 77.082031 C 133.125 63.222656 108.027344 64.796875 84.480469 81.921875 C 66.238281 95.191406 56.417969 113.371094 56.527344 136.378906 C 56.578125 147.84375 56.5 159.3125 56.535156 170.78125 C 56.621094 196.050781 67.71875 215.207031 89.683594 227.339844 C 107.6875 237.285156 126.1875 246.382812 144.753906 255.261719 C 165.371094 265.117188 186.738281 265.796875 207.507812 256.265625 C 227.835938 246.945312 247.777344 236.699219 267.453125 226.054688 C 285.109375 216.5 295.242188 200.875 298.019531 181.144531 C 299.261719 172.304688 298.230469 163.148438 298.230469 154.132812 M 314.0625 186.234375 C 314.0625 201.957031 315.4375 217.816406 313.796875 233.363281 C 309.347656 275.515625 291.148438 309.96875 253.898438 332.601562 C 252.585938 333.398438 251.203125 334.125 249.773438 334.6875 C 246.132812 336.109375 242.652344 335.128906 240.484375 332.191406 C 238.144531 329.015625 237.976562 324.648438 240.710938 321.890625 C 243.3125 319.265625 246.691406 317.421875 249.335938 314.824219 C 255.917969 308.355469 262.3125 301.6875 268.707031 295.03125 C 271.019531 292.625 272.941406 289.828125 275.375 287.570312 C 278.320312 284.839844 279.601562 281.789062 278.507812 277.902344 C 277.640625 274.824219 275.707031 272.730469 272.453125 272.105469 C 268.21875 271.289062 265.492188 273.359375 262.964844 276.554688 C 257.558594 283.394531 252.519531 290.71875 246.152344 296.5625 C 230.953125 310.523438 212.253906 317.421875 192.027344 319.78125 C 169.699219 322.390625 148.082031 319.320312 127.742188 309.238281 C 113.707031 302.28125 102.152344 292.511719 93.953125 279 C 93.222656 277.792969 92.464844 276.589844 91.613281 275.460938 C 88.816406 271.75 84.027344 270.929688 80.347656 273.472656 C 76.804688 275.925781 75.640625 281.253906 78.535156 284.761719 C 87.996094 296.246094 96.410156 308.765625 109.273438 317.023438 C 110.570312 317.855469 111.769531 318.84375 112.964844 319.824219 C 117.003906 323.128906 117.902344 327.15625 115.492188 331.015625 C 113.007812 334.992188 107.78125 336.691406 103.683594 333.871094 C 95.644531 328.347656 87.488281 322.800781 80.300781 316.253906 C 62.230469 299.792969 51.742188 278.765625 45.617188 255.359375 C 42.667969 244.085938 40.992188 232.65625 41.003906 220.988281 C 41.039062 194.441406 40.695312 167.890625 41.117188 141.351562 C 41.6875 105.191406 57.621094 77.925781 89.84375 60.863281 C 100.03125 55.46875 110.253906 49.84375 121.050781 45.964844 C 148.90625 35.96875 177.636719 33.285156 206.972656 38.175781 C 220.996094 40.515625 234.984375 43.488281 247.429688 50.351562 C 261.726562 58.238281 277.136719 64.382812 288.789062 76.746094 C 302.039062 90.800781 311.300781 106.867188 313 126.035156 C 314.636719 144.457031 314.179688 163.066406 314.636719 181.597656 C 314.671875 183.144531 314.640625 184.691406 314.640625 186.234375 Z M 314.0625 186.234375 " fill-opacity="1" fill-rule="nonzero"/></g><path fill="#2563eb" d="M 149.339844 153.945312 C 149.242188 138.660156 136.945312 126.058594 122.082031 126.015625 C 107.386719 125.96875 94.664062 138.6875 94.699219 153.386719 C 94.738281 168.738281 107.335938 181.390625 122.425781 181.234375 C 137.167969 181.082031 149.4375 168.640625 149.339844 153.945312 M 260.976562 153.90625 C 260.933594 138.492188 248.417969 125.886719 233.269531 126.003906 C 218.722656 126.113281 206.195312 138.664062 206.078125 153.242188 C 205.964844 168.429688 218.613281 181.253906 233.699219 181.238281 C 248.679688 181.222656 261.019531 168.859375 260.976562 153.90625 M 285.488281 153.820312 C 285.488281 159.230469 285.367188 164.648438 285.511719 170.054688 C 286.050781 190.746094 276.539062 205.707031 258.753906 215.253906 C 241.183594 224.6875 223.289062 233.550781 205.316406 242.207031 C 186.679688 251.179688 167.71875 251.347656 149.082031 242.097656 C 130.984375 233.113281 112.839844 224.179688 95.160156 214.417969 C 78.417969 205.167969 69.714844 190.527344 69.75 171.082031 C 69.769531 159.359375 69.707031 147.632812 69.734375 135.902344 C 69.792969 109.105469 89.613281 86.472656 116.230469 82.523438 C 129.351562 80.574219 141.558594 82.789062 153.019531 89.457031 C 170.101562 99.390625 187.1875 99.207031 204.273438 89.375 C 237.640625 70.179688 279.195312 89.65625 284.953125 127.578125 C 286.25 136.136719 285.144531 145.0625 285.144531 153.816406 C 285.257812 153.816406 285.371094 153.820312 285.488281 153.820312 " fill-opacity="1" fill-rule="nonzero"/></svg>